<?xml version="1.0" standalone="no"?><!DOCTYPE svg PUBLIC "-//W3C//DTD SVG 1.1//EN" "http://www.w3.org/Graphics/SVG/1.1/DTD/svg11.dtd"><svg t="1661133566953" class="icon" viewBox="0 0 1024 1024" version="1.1" xmlns="http://www.w3.org/2000/svg" p-id="1111" width="64" height="64" xmlns:xlink="http://www.w3.org/1999/xlink"><defs><style type="text/css"></style></defs><path d="M448 288v64h-32V288h32z m32-32v128h-32V256h32z m224 64h-64V288h64v32z m-64 0h64v32h-64v-32z m64-224v32h-32V96h32z m0 0h-64V64h64v32z m32-32v64h-32V64h32z m32 32v96h-32V96h32z m32 32v96h-32V128h32z m96 256v32h-32v-32h32z m32 0v64h-32v-64h32z m-96-192v224h-32V192h32z m32 64v160h-32V256h32z m-416 224v32h-32v-32h32z m32 0v64h-32v-64h32z m192 64h-32v-32h32v32z m-32-64h64v32h-64v-32z m96 0H416v-32h320v32z m224-64v64h-32v-64h32z m64 64v192h-32v-192h32z m-32-32v256h-32v-256h32z m-32 192v64h-32v-64h32z m-32-32v96h-32v-96h32z m-64-32v64h-32v-64h32z m32 0v96h-32v-96h32z m-32 96v32h-32v-32h32z m-64 32v64h-32v-64h32z m32-96v160h-32v-160h32z m-32 192h-64v-32h64v32z m-64 0h64v32h-64v-32z m32 64h-64v-32h64v32z m-32 32h-64v-32h64v32z m-32 32h-96v-32h96v32z m-32 32h-128v-32h128v32zM288 992h256v32H288v-32z m352 0H224v-32h416v32zM288 960H224v-32h64v32z m-96 0v-64h32v64H192z m-32 0v-64h32v64H160z m-32-32v-64h32v64H128z m-32-32v-64h32v48H96V832h32v64H96z m-32-32v-96h32v96H64z m-64-96v-96h32v96H0z m32 64v-160h32v160H32z m32-96v-96h32v96H64z m32 32v-256h32v256H96z m224-64v-96h32v96h-32z m-32 32v-160h32v160H288z m0-160v192H256v-192h32z m-64 224v-224h32v224H224z m0-192v192H192v-192h32z m-64 192v-160h32v160H160z m-32-32v-288h32v288H128z m0-320h64v32H128v-32z m32-32h64v32H160v-32z m32-32h64v32H192v-32z m96-160v192H256V224h32z m0 192V64h32v352H288z m64-256h32v32h-32V160z m-32 64V128h32v96h-32zM256 128V64h32v64H256z m448-64H256V32h448v32z m-96-32H288V0h320v32z" fill="#0C0C0C" p-id="1112"></path><path d="M512 640h96v32h-96v-32z m128 0h-160v-32h160v32z m-160-64h160v32h-160v-32z m160 0h-160v-32h160v32z m-160-64h160v32h-160v-32z m160 0h-160v-32h160v32z" fill="#EC4221" p-id="1113"></path><path d="M160 640v-64h32v64H160z m96 256v32H224v-32h32z m608-480v32h-32v-32h32z m96 96v32h-32v-32h32z m0 96v32h-32v-32h32z m-128-32v32h-32v-32h32z m-32 64v32h-32v-32h32z m-32 96v32h-32v-32h32z m-160 160v32h-32v-32h32z m-96 64h-64v-32h64v32z m-128 0h-64v-32h64v32z m-224-192v32H128v-32h32z m-64 32v-32h32v32H96z m-32-32v-32h32v32H64z m128-224H160v-32h32v32z m96-96H256v-32h32v32z m32-160V224h32v64h-32z m448 32V256h32v64h-32z m-32-96V192h32v32h-32z m-96-96V96h32v32h-32z m-32-32h-64V64h64v32z m-256 0h-32V64h32v32z" fill="#B2AEAF" p-id="1114"></path><path d="M736 480v32h-32v-32h32z m-32 32v32h-32v-32h32z m192-96v32h-32v-32h32z m32 32v32h-32v-32h32z m32 32v32h-32v-32h32z m-32 96v32h-32v-32h32z m-64 64v32h-32v-32h32z m-64 32v32h-32v-32h32z m-64 128v32h-32v-32h32z m-32 32v32h-32v-32h32z m-32 32v32h-32v-32h32z m-128 96h-32v-32h32v32z m-224 0H288v-32h32v32z m-160-64v-32h32v32H160z m-32-32v-32h32v32H128z m-32-32v-32h32v32H96z m224-96v32H288v-32h32z m-32 32v32H256v-32h32z m64-64v32h-32v-32h32z m0-128v32h-32v-32h32z m-128 0v32H192v-32h32z m-32-96v32H160v-32h32z m32-32v32H192v-32h32z m32-32v32H224v-32h32z m160 32v64h-32v-64h32z m0 64h32v32h-32v-32z m32-128h-32v-32h32v32z m0-96h-32V256h32v32z m256 96h-64v-32h64v32z m-64-128h64v32h-64V256z m128 0V224h32v32h-32z m-64-96V128h32v32h-32z m-96-64V64h32v32h-32z m-256 64V128h32v32h-32z m-32-32V96h32v32h-32z" fill="#636363" p-id="1115"></path><path d="M736 256v128h-32V256h32z m-256 96h160v32h-160v-32z m160 0h-160v-32h160v32z m-160-64h160v32h-160V288z m160 0h-160V256h160v32z m-224-32v128h-32V256h32z m-32 128h352v32H384v-32z m352 64H384v-32h352v32zM320 800H288v-32h32v32z m0 128H256v-32h64v32z m0-32H192v-32h128v32z m0-32H160v-32h160v32z m0-32H128v-32h192v32z m-160-256v-32h32v32H160z m32 0v-96h32v96H192z m32 0v-128h32v128H224z m32 0v-128h32v128H256z m32 0v-160h32v160H288z m64-288v288h-32V288h32z m0 448v192h-32v-192h32z m576-128v-64h32v64h-32z m-32-32v-96h32v96h-32z m-32 0v-128h32v128h-32z m0-128v128h-32v-128h32z m-64 128v-160h32v160h-32z m-32 64V320h32v320h-32z m0-384v480h-32V256h32z m-32 256v288h-32v-288h32z m-64 320v-288h32v288h-32z m0-288v320h-32V544h32z m-64 352v-256h32v256h-32z m0-224v224h-32v-224h32z m-32 0v256h-32v-256h32z m-64 256v-256h32v256h-32z m0-288v288h-32v-288h32z m-64 288V544h32v384h-32z m0-384v416h-32V544h32z m-64 416V512h32v448h-32z m-32-32V256h32v672h-32zM768 256H352V224h416v32z m-32-32H352V192h384v32z m0-32H384V160h352v32z m-32-32H384V128h320v32z m-64-32h-288V96h288v32z m-96-32h-192V64h192v32z" fill="#F9F9F9" p-id="1116"></path></svg>